PathFileType   4   (X/Y/Z)
DataRate	CameraRate	NumFrames	NumMarkers	Units	OrigDataRate	OrigDataStartFrame	OrigNumFrames
120.0	120.0	8	37	mm	120.0	111	126
Frame#	Time	midhip	hip_r	hip_l	knee_r	knee_l	ankle_r	ankle_l	midasis	asis_r	asis_l	psis_r	psis_l	epicondLat_r	epicondLat_l	epicondMed_r	epicondMed_l	malleolusLat_r	malleolusLat_l	malleolusMedv_r	malleolusMedv_l	neck	subclavicle_r	subclavicle_l	sternalnotch	xyphoidprocess	thighwand_r	thighwand_l	upperleg1_r	upperleg1_l	upperleg2_r	upperleg2_l	shankwand_r	shankwand_l	lowerleg1_r	lowerleg1_l	toe_r	toe_l
 	 	X1	Y1	Z1	X2	Y2	Z2	X3	Y3	Z3	X4	Y4	Z4	X5	Y5	Z5	X6	Y6	Z6	X7	Y7	Z7	X8	Y8	Z8	X9	Y9	Z9	X10	Y10	Z10	X11	Y11	Z11	X12	Y12	Z12	X13	Y13	Z13	X14	Y14	Z14	X15	Y15	Z15	X16	Y16	Z16	X17	Y17	Z17	X18	Y18	Z18	X19	Y19	Z19	X20	Y20	Z20	X21	Y21	Z21	X22	Y22	Z22	X23	Y23	Z23	X24	Y24	Z24	X25	Y25	Z25	X26	Y26	Z26	X27	Y27	Z27	X28	Y28	Z28	X29	Y29	Z29	X30	Y30	Z30	X31	Y31	Z31	X32	Y32	Z32	X33	Y33	Z33	X34	Y34	Z34	X35	Y35	Z35	X36	Y36	Z36	X37	Y37	Z37

	111	1.05833	868.233	737.823	-256.220	845.965	734.330	-197.601	862.364	733.805	-326.879	809.994	396.206	-225.362	1001.665	435.536	-327.074	715.549	66.684	-238.214	1047.772	83.612	-350.100	926.163	800.628	-253.377	913.498	801.034	-153.539	938.827	800.222	-353.216	766.731	847.053	-240.130	771.186	843.678	-294.363	804.501	392.309	-170.776	1004.597	436.941	-381.477	825.976	406.846	-274.007	1005.872	402.955	-286.357	710.263	66.751	-201.089	1044.747	85.625	-386.921	715.615	66.345	-264.027	1049.874	81.880	-320.573	813.200	1212.318	-275.520	915.276	1151.410	-228.917	918.690	1153.010	-304.990	902.314	1151.525	-269.023	927.509	1068.332	-267.234	913.425	500.610	-100.538	1084.668	603.096	-324.995	846.477	567.995	-133.344	998.596	627.458	-366.829	843.057	485.207	-156.247	1025.389	544.070	-364.541	731.852	170.368	-120.967	1053.166	214.921	-452.306	721.428	138.029	-198.576	1036.503	168.942	-383.353	807.365	36.282	-215.858	1150.021	66.806	-356.512
	112	1.06667	876.573	736.999	-256.173	853.608	733.457	-197.777	870.685	732.560	-326.966	813.470	395.920	-225.285	1008.944	433.746	-326.343	715.992	67.045	-238.222	1071.761	83.522	-350.003	934.123	799.568	-253.320	920.942	800.261	-153.611	947.303	798.876	-353.029	774.708	846.059	-241.143	779.595	842.515	-295.452	807.368	392.201	-170.751	1011.762	434.936	-380.757	835.851	406.046	-273.851	1010.918	400.095	-285.168	710.547	67.200	-201.120	1068.898	85.497	-386.839	715.981	66.757	-264.070	1073.523	81.765	-320.457	821.637	1211.197	-275.505	923.863	1150.221	-229.414	928.117	1151.783	-305.502	911.346	1150.294	-269.689	936.640	1067.139	-267.573	916.944	499.733	-99.698	1091.844	599.381	-325.088	851.186	567.734	-133.360	1005.805	624.142	-366.954	849.156	485.133	-155.949	1031.705	540.573	-364.238	732.737	170.684	-121.018	1071.610	215.671	-451.671	722.249	138.709	-198.485	1056.516	168.636	-382.855	807.475	36.276	-215.813	1174.853	70.488	-354.868
	113	1.07500	885.231	736.314	-256.081	861.463	732.492	-198.054	879.252	731.275	-327.144	816.976	395.678	-225.220	1016.177	431.824	-325.906	716.481	67.473	-238.252	1094.479	84.009	-349.576	942.243	798.510	-253.322	928.520	799.449	-153.740	955.965	797.571	-352.904	782.718	844.933	-242.165	788.071	841.224	-296.554	810.292	392.167	-170.741	1019.054	432.914	-380.319	838.086	405.312	-273.487	1015.340	396.943	-284.157	710.860	67.722	-201.177	1091.842	85.924	-386.432	716.436	67.226	-264.104	1095.958	82.346	-320.035	830.085	1210.066	-275.524	932.417	1148.854	-229.990	936.413	1150.588	-306.184	919.763	1149.036	-270.269	944.964	1065.846	-268.430	920.609	498.885	-98.940	1098.978	595.447	-324.844	856.097	567.389	-133.441	1013.167	620.648	-367.023	852.497	484.314	-155.871	1037.993	536.752	-363.883	733.609	171.088	-121.072	1089.325	216.635	-450.906	723.028	139.457	-198.437	1075.650	168.779	-382.355	807.605	36.251	-215.764	1198.267	74.520	-352.979
	114	1.08333	894.212	735.766	-255.991	869.550	731.455	-198.373	888.013	729.950	-327.366	820.546	395.494	-225.185	1023.471	429.808	-325.748	717.023	67.980	-238.304	1115.737	84.857	-348.830	950.511	797.467	-253.382	936.276	798.627	-153.925	964.746	796.307	-352.838	790.783	843.673	-243.214	796.615	839.808	-297.672	813.314	392.205	-170.762	1026.592	430.923	-380.147	824.215	405.620	-271.900	1019.741	393.607	-283.197	711.212	68.332	-201.259	1113.386	86.695	-385.709	716.968	67.804	-264.127	1117.028	83.413	-319.303	838.567	1208.872	-275.612	941.042	1147.350	-230.723	945.482	1149.374	-306.919	928.622	1147.681	-271.090	953.836	1064.491	-269.420	924.457	498.055	-98.280	1106.179	591.552	-324.217	861.106	567.063	-133.461	1020.758	617.016	-366.937	849.697	482.585	-155.718	1044.497	532.776	-363.379	734.493	171.597	-121.144	1106.230	217.660	-450.019	724.012	140.354	-198.375	1093.734	169.203	-381.931	807.761	36.211	-215.715	1220.075	78.674	-350.851
	115	1.09167	903.404	735.227	-256.023	877.762	730.334	-198.743	896.845	728.599	-327.642	824.224	395.369	-225.199	1030.924	427.767	-325.811	717.624	68.575	-238.368	1135.378	85.853	-347.813	958.843	796.406	-253.503	944.137	797.744	-154.164	973.550	795.069	-352.841	798.961	842.287	-244.306	805.230	838.288	-298.798	816.489	392.311	-170.832	1034.474	429.019	-380.181	831.713	405.495	-272.526	1024.915	390.411	-282.259	711.613	69.044	-201.356	1133.345	87.607	-384.715	717.565	68.546	-264.180	1136.563	84.662	-318.309	847.102	1207.579	-275.776	949.664	1145.790	-231.436	954.715	1148.167	-307.646	937.569	1146.296	-271.930	962.843	1063.121	-270.438	928.521	497.237	-97.727	1113.534	587.973	-323.206	866.289	566.783	-133.443	1028.533	613.557	-366.630	855.272	482.495	-155.878	1051.464	529.108	-362.683	735.419	172.237	-121.235	1122.207	218.607	-449.046	724.987	141.358	-198.311	1110.715	169.696	-381.156	807.938	36.166	-215.671	1240.126	82.703	-348.518
	116	1.10000	912.691	734.580	-256.268	886.209	729.196	-199.090	905.746	727.238	-327.918	828.066	395.295	-225.268	1038.625	425.773	-326.015	718.263	69.270	-238.426	1153.307	86.823	-346.593	967.293	795.379	-253.709	952.245	796.888	-154.483	982.342	793.871	-352.936	807.294	840.803	-245.433	813.918	836.703	-299.920	819.861	392.465	-170.957	1042.752	427.250	-380.338	836.106	405.537	-272.641	1030.660	387.607	-281.845	712.056	69.869	-201.448	1151.584	88.482	-383.515	718.224	69.376	-264.217	1154.283	85.922	-317.234	855.686	1206.315	-275.999	958.191	1144.254	-232.034	963.941	1146.885	-308.331	946.468	1144.896	-272.706	971.721	1061.714	-271.257	932.817	496.415	-97.285	1121.106	584.936	-321.860	871.805	566.540	-133.506	1036.706	610.797	-366.027	859.846	482.367	-155.921	1058.970	526.122	-361.938	736.439	173.016	-121.330	1137.127	219.360	-448.035	725.713	142.422	-198.430	1126.488	170.092	-380.089	808.125	36.126	-215.627	1258.319	86.360	-346.042
	117	1.10833	921.956	733.760	-256.687	894.808	728.034	-199.492	914.707	725.909	-328.262	832.099	395.237	-225.393	1046.591	423.906	-326.280	718.917	70.080	-238.458	1169.487	87.611	-345.243	975.837	794.372	-254.006	960.516	796.009	-154.858	991.159	792.736	-353.153	815.779	839.277	-246.567	822.686	835.100	-301.037	823.462	392.641	-171.137	1051.408	425.653	-380.539	861.102	403.399	-272.219	1036.822	385.428	-282.223	712.538	70.815	-201.512	1168.023	89.159	-382.182	718.900	70.306	-264.247	1170.139	87.003	-315.955	864.271	1205.050	-276.256	966.785	1142.787	-232.716	972.591	1145.506	-309.014	955.091	1143.493	-273.399	980.248	1060.280	-272.037	937.365	495.572	-96.953	1128.963	582.562	-320.277	877.636	566.283	-133.620	1045.364	608.960	-365.270	872.750	484.007	-154.932	1067.004	524.120	-361.323	737.613	173.935	-121.408	1150.878	219.807	-447.027	726.691	143.536	-198.590	1140.812	170.309	-379.119	808.326	36.129	-215.595	1274.605	89.416	-343.507
	118	1.11667	931.120	732.731	-257.225	903.546	726.868	-200.004	923.770	724.644	-328.721	836.376	395.161	-225.577	1054.833	422.233	-326.528	719.587	71.004	-238.444	1183.858	88.068	-343.849	984.494	793.400	-254.401	968.918	795.113	-155.269	1000.070	791.687	-353.533	824.406	837.763	-247.685	831.543	833.521	-302.141	827.349	392.810	-171.374	1060.395	424.250	-380.706	869.050	403.441	-272.645	1044.322	383.864	-283.358	713.072	71.886	-201.525	1182.587	89.492	-380.800	719.521	71.441	-264.329	1184.126	87.622	-314.325	872.873	1203.728	-276.605	975.543	1141.410	-233.553	980.570	1144.139	-309.795	963.433	1142.139	-274.060	988.504	1058.896	-272.975	942.206	494.692	-96.743	1137.164	580.847	-318.584	883.703	565.980	-133.800	1054.431	607.963	-364.583	879.015	484.236	-155.087	1075.891	523.142	-360.935	738.989	174.983	-121.456	1163.407	219.849	-446.060	727.940	144.776	-198.593	1153.614	170.287	-378.263	808.531	36.196	-215.565	1288.969	91.662	-341.025
